<svg width="60" height="60" viewBox="0 0 60 60" fill="none" xmlns="http://www.w3.org/2000/svg">
<path d="M55.3846 11.5385C55.3846 8.47827 54.169 5.54342 52.0051 3.37954C49.8412 1.21566 46.9063 0 43.8462 0H11.5385C8.47827 0 5.54342 1.21566 3.37954 3.37954C1.21566 5.54342 0 8.47827 0 11.5385V43.8462C0 46.9063 1.21566 49.8412 3.37954 52.0051C5.54342 54.169 8.47827 55.3846 11.5385 55.3846H19.6477C18.4723 53.9608 17.4555 52.4133 16.6154 50.7692H11.5385C9.70235 50.7692 7.94144 50.0398 6.64311 48.7415C5.34478 47.4432 4.61538 45.6823 4.61538 43.8462V18.4615H24.6323C28.7631 15.5538 33.7985 13.8462 39.2308 13.8462C45.3692 13.8462 51 16.0246 55.3846 19.6477V11.5385ZM39.2308 13.8462H4.61538V11.5385C4.61538 9.70235 5.34478 7.94144 6.64311 6.64311C7.94144 5.34478 9.70235 4.61538 11.5385 4.61538H43.8462C45.6823 4.61538 47.4432 5.34478 48.7415 6.64311C50.0398 7.94144 50.7692 9.70235 50.7692 11.5385V13.8462H39.2308ZM36.3462 30C36.3462 29.235 36.6501 28.5012 37.191 27.9603C37.732 27.4193 38.4657 27.1154 39.2308 27.1154C39.9958 27.1154 40.7295 27.4193 41.2705 27.9603C41.8115 28.5012 42.1154 29.235 42.1154 30C42.1154 30.765 41.8115 31.4988 41.2705 32.0397C40.7295 32.5807 39.9958 32.8846 39.2308 32.8846C38.4657 32.8846 37.732 32.5807 37.191 32.0397C36.6501 31.4988 36.3462 30.765 36.3462 30ZM41.5385 48.4615C41.5385 49.0736 41.2953 49.6606 40.8626 50.0933C40.4298 50.5261 39.8428 50.7692 39.2308 50.7692C38.6187 50.7692 38.0318 50.5261 37.599 50.0933C37.1662 49.6606 36.9231 49.0736 36.9231 48.4615V39.2308C36.9231 38.6187 37.1662 38.0318 37.599 37.599C38.0318 37.1662 38.6187 36.9231 39.2308 36.9231C39.8428 36.9231 40.4298 37.1662 40.8626 37.599C41.2953 38.0318 41.5385 38.6187 41.5385 39.2308V48.4615ZM18.4615 39.2308C18.4615 36.5033 18.9987 33.8026 20.0425 31.2827C21.0863 28.7629 22.6161 26.4733 24.5447 24.5447C26.4733 22.6161 28.7629 21.0863 31.2827 20.0425C33.8026 18.9987 36.5033 18.4615 39.2308 18.4615C41.9582 18.4615 44.659 18.9987 47.1788 20.0425C49.6986 21.0863 51.9882 22.6161 53.9168 24.5447C55.8454 26.4733 57.3753 28.7629 58.419 31.2827C59.4628 33.8026 60 36.5033 60 39.2308C60 44.7391 57.8118 50.0218 53.9168 53.9168C50.0218 57.8118 44.7391 60 39.2308 60C33.7224 60 28.4397 57.8118 24.5447 53.9168C20.6497 50.0218 18.4615 44.7391 18.4615 39.2308V39.2308ZM23.0769 39.2308C23.0769 43.515 24.7788 47.6238 27.8083 50.6533C30.8377 53.6827 34.9465 55.3846 39.2308 55.3846C43.515 55.3846 47.6238 53.6827 50.6533 50.6533C53.6827 47.6238 55.3846 43.515 55.3846 39.2308C55.3846 34.9465 53.6827 30.8377 50.6533 27.8083C47.6238 24.7788 43.515 23.0769 39.2308 23.0769C34.9465 23.0769 30.8377 24.7788 27.8083 27.8083C24.7788 30.8377 23.0769 34.9465 23.0769 39.2308V39.2308Z" fill="#1B1C1F"/>
</svg>
