<svg width="100" height="80" viewBox="0 0 100 80" fill="none" xmlns="http://www.w3.org/2000/svg">
<path d="M20.7703 0C15.0645 0 10.8422 5.0154 11.0312 10.4545C11.2129 15.6797 10.977 22.4479 9.28047 27.967C7.57891 33.5021 4.70078 37.0084 0 37.4588V42.5412C4.70078 42.9916 7.57891 46.4979 9.28047 52.0334C10.977 57.5525 11.2129 64.3199 11.0312 69.5455C10.8422 74.9838 15.0645 80 20.7711 80H79.2371C84.9434 80 89.1645 74.9846 88.9754 69.5455C88.7941 64.3203 89.0297 57.5525 90.7262 52.0334C92.4289 46.4982 95.2992 42.9912 100 42.5412V37.4588C95.2992 37.0084 92.4289 33.5021 90.7266 27.967C89.0297 22.4487 88.7941 15.6801 88.9754 10.4545C89.1645 5.01618 84.9434 0 79.2371 0H20.7695H20.7703V0ZM67.7969 49.245C67.7969 56.7346 62.2344 61.2765 53.0031 61.2765H37.2883C36.8388 61.2764 36.4078 61.097 36.09 60.7778C35.7723 60.4586 35.5938 60.0257 35.5938 59.5744V20.4256C35.5937 20.2021 35.6375 19.9807 35.7227 19.7741C35.8078 19.5676 35.9327 19.3799 36.09 19.2218C36.2474 19.0637 36.4343 18.9383 36.64 18.8527C36.8456 18.7671 37.0661 18.7231 37.2887 18.7231H52.9133C60.6105 18.7231 65.6621 22.9108 65.6621 29.3396C65.6621 33.8521 62.2637 37.8918 57.9344 38.5991V38.8349C63.8285 39.4841 67.7969 43.5832 67.7969 49.245V49.245ZM51.2891 24.119H42.3293V36.8291H49.8762C55.7098 36.8291 58.927 34.4699 58.927 30.2528C58.927 26.3013 56.1605 24.119 51.2895 24.119H51.2891ZM42.3293 41.8724V55.879H51.6191C57.6926 55.879 60.9105 53.4315 60.9105 48.8316C60.9105 44.2308 57.6031 41.8716 51.2285 41.8716H42.3293V41.8724Z" fill="#6675FF"/>
</svg>
