<svg width="72" height="60" viewBox="0 0 72 60" fill="none" xmlns="http://www.w3.org/2000/svg">
<path d="M38.9945 23.25C38.9945 22.6533 39.2316 22.081 39.6536 21.659C40.0756 21.2371 40.648 21 41.2449 21H57.7476C58.3445 21 58.9169 21.2371 59.3389 21.659C59.7609 22.081 59.998 22.6533 59.998 23.25C59.998 23.8467 59.7609 24.419 59.3389 24.841C58.9169 25.2629 58.3445 25.5 57.7476 25.5H41.2449C40.648 25.5 40.0756 25.2629 39.6536 24.841C39.2316 24.419 38.9945 23.8467 38.9945 23.25V23.25ZM41.2449 33C40.648 33 40.0756 33.2371 39.6536 33.659C39.2316 34.081 38.9945 34.6533 38.9945 35.25C38.9945 35.8467 39.2316 36.419 39.6536 36.841C40.0756 37.2629 40.648 37.5 41.2449 37.5H57.7476C58.3445 37.5 58.9169 37.2629 59.3389 36.841C59.7609 36.419 59.998 35.8467 59.998 35.25C59.998 34.6533 59.7609 34.081 59.3389 33.659C58.9169 33.2371 58.3445 33 57.7476 33H41.2449ZM27.7426 23.25C27.7426 24.6424 27.1894 25.9777 26.2047 26.9623C25.2199 27.9469 23.8844 28.5 22.4917 28.5C21.0991 28.5 19.7635 27.9469 18.7788 26.9623C17.7941 25.9777 17.2409 24.6424 17.2409 23.25C17.2409 21.8576 17.7941 20.5223 18.7788 19.5377C19.7635 18.5531 21.0991 18 22.4917 18C23.8844 18 25.2199 18.5531 26.2047 19.5377C27.1894 20.5223 27.7426 21.8576 27.7426 23.25V23.25ZM14.9905 31.5H29.993C30.7888 31.5 31.552 31.8161 32.1147 32.3787C32.6774 32.9413 32.9935 33.7044 32.9935 34.5V36C32.9935 36 31.4932 43.5 22.4917 43.5C13.4902 43.5 11.99 36 11.99 36V34.5C11.99 33.7044 12.3061 32.9413 12.8688 32.3787C13.4315 31.8161 14.1947 31.5 14.9905 31.5ZM0 8.25C0 6.06196 0.869339 3.96354 2.41677 2.41637C3.9642 0.869193 6.06298 0 8.25138 0H63.7486C65.937 0 68.0358 0.869193 69.5832 2.41637C71.1307 3.96354 72 6.06196 72 8.25V51.75C72 53.938 71.1307 56.0365 69.5832 57.5836C68.0358 59.1308 65.937 60 63.7486 60H8.25438C6.06598 60 3.96721 59.1308 2.41977 57.5836C0.872339 56.0365 0.003001 53.938 0.003001 51.75V8.25H0ZM8.25138 4.5C6.18103 4.5 4.50075 6.18 4.50075 8.25V51.75C4.50075 53.82 6.18103 55.5 8.25138 55.5H63.7486C65.819 55.5 67.4992 53.82 67.4992 51.75V8.25C67.4992 6.18 65.819 4.5 63.7486 4.5H8.25438H8.25138Z" fill="#6675FF"/>
</svg>