<svg width="60" height="86" viewBox="0 0 60 86" fill="none" xmlns="http://www.w3.org/2000/svg">
<path d="M29.9258 3H16.6758C13.1617 3 9.79147 4.40476 7.30662 6.90524C4.82176 9.40573 3.42578 12.7971 3.42578 16.3333C3.42578 19.8696 4.82176 23.2609 7.30662 25.7614C9.79147 28.2619 13.1617 29.6667 16.6758 29.6667M29.9258 3V29.6667M29.9258 3H43.1758C44.9158 3 46.6388 3.34488 48.2463 4.01494C49.8539 4.685 51.3146 5.66713 52.545 6.90524C53.7753 8.14336 54.7513 9.61321 55.4172 11.2309C56.0831 12.8486 56.4258 14.5824 56.4258 16.3333C56.4258 18.0843 56.0831 19.8181 55.4172 21.4358C54.7513 23.0535 53.7753 24.5233 52.545 25.7614C51.3146 26.9995 49.8539 27.9817 48.2463 28.6517C46.6388 29.3218 44.9158 29.6667 43.1758 29.6667M29.9258 29.6667H16.6758M29.9258 29.6667H43.1758M29.9258 29.6667V56.3333M16.6758 29.6667C13.1617 29.6667 9.79147 31.0714 7.30662 33.5719C4.82176 36.0724 3.42578 39.4638 3.42578 43C3.42578 46.5362 4.82176 49.9276 7.30662 52.4281C9.79147 54.9286 13.1617 56.3333 16.6758 56.3333M43.1758 29.6667C41.4358 29.6667 39.7128 30.0115 38.1052 30.6816C36.4977 31.3517 35.037 32.3338 33.8066 33.5719C32.5762 34.81 31.6003 36.2799 30.9344 37.8976C30.2685 39.5152 29.9258 41.249 29.9258 43C29.9258 44.751 30.2685 46.4848 30.9344 48.1024C31.6003 49.7201 32.5762 51.19 33.8066 52.4281C35.037 53.6662 36.4977 54.6483 38.1052 55.3184C39.7128 55.9885 41.4358 56.3333 43.1758 56.3333C44.9158 56.3333 46.6388 55.9885 48.2463 55.3184C49.8539 54.6483 51.3146 53.6662 52.545 52.4281C53.7753 51.19 54.7513 49.7201 55.4172 48.1024C56.0831 46.4848 56.4258 44.751 56.4258 43C56.4258 41.249 56.0831 39.5152 55.4172 37.8976C54.7513 36.2799 53.7753 34.81 52.545 33.5719C51.3146 32.3338 49.8539 31.3517 48.2463 30.6816C46.6388 30.0115 44.9158 29.6667 43.1758 29.6667ZM16.6758 56.3333C13.1617 56.3333 9.79147 57.7381 7.30662 60.2386C4.82176 62.7391 3.42578 66.1304 3.42578 69.6667C3.42578 73.2029 4.82176 76.5943 7.30662 79.0948C9.79147 81.5952 13.1617 83 16.6758 83C20.1899 83 23.5601 81.5952 26.0449 79.0948C28.5298 76.5943 29.9258 73.2029 29.9258 69.6667V56.3333M16.6758 56.3333H29.9258" stroke="#6675FF" stroke-width="6" stroke-linecap="round" stroke-linejoin="round"/>
</svg>
