<svg width="24" height="26" viewBox="0 0 24 26" fill="none" xmlns="http://www.w3.org/2000/svg">
<path d="M16.5077 25V20.5828C16.5492 20.0385 16.4779 19.4914 16.2984 18.9777C16.141 18.5275 15.9037 18.1121 15.5991 17.7524C15.546 17.6896 15.5825 17.5902 15.6641 17.58C19.0817 17.1511 22.6 15.728 22.6 9.61392C22.5997 8.04091 22.0201 6.52745 20.9796 5.37859C20.9545 5.35088 20.9465 5.31158 20.9589 5.27631C21.4371 3.9121 21.4008 2.41226 20.8567 1.07415C20.8455 1.04653 20.8231 1.02589 20.7938 1.02047C20.5421 0.973935 19.2225 0.85476 16.5471 2.6927C16.5226 2.70952 16.4911 2.71521 16.4625 2.70731C13.9522 2.01502 11.3093 2.01502 8.79905 2.70731C8.77041 2.71521 8.73891 2.70952 8.71443 2.6927C6.03901 0.85476 4.71948 0.973935 4.46776 1.02047C4.43844 1.02589 4.41608 1.04653 4.40485 1.07415C3.86077 2.41226 3.8244 3.9121 4.30264 5.27631C4.315 5.31158 4.30708 5.35088 4.28198 5.37859C3.23358 6.53608 2.65336 8.06332 2.66154 9.64816C2.66154 15.7196 6.18237 17.1407 9.60108 17.6122C9.68194 17.6233 9.71747 17.7218 9.66472 17.7841C9.3632 18.1403 9.12757 18.551 8.97019 18.9961C8.79079 19.5035 8.71708 20.0441 8.75385 20.5828V25M2.02337 18.7853C3.36702 20.1319 4.17721 22.8713 8.49256 21.6531C8.58158 21.628 8.59382 21.5051 8.50921 21.4678L2.1149 18.644C2.00253 18.5943 1.9366 18.6984 2.02337 18.7853Z" stroke="white" stroke-width="2" stroke-linecap="round" stroke-linejoin="round"/>
</svg>