<svg width="60" height="60" viewBox="0 0 60 60" fill="none" xmlns="http://www.w3.org/2000/svg">
<path d="M58.7558 29.5183L33.1834 2.45623L31.4693 0.641343C31.0788 0.230552 30.5506 0 30.0001 0C29.4496 0 28.9215 0.230552 28.5309 0.641343L1.24448 29.5183C0.844288 29.9404 0.528012 30.4431 0.314317 30.9967C0.100623 31.5503 -0.00615899 32.1437 0.000274318 32.7417C0.0267467 35.2082 1.96585 37.1773 4.29542 37.1773H7.10811V60H52.8921V37.1773H55.7644C56.8961 37.1773 57.9616 36.7078 58.7624 35.8599C59.1567 35.4438 59.4691 34.9489 59.6815 34.4041C59.894 33.8592 60.0022 33.2751 60 32.6856C60 31.4944 59.5566 30.3662 58.7558 29.5183V29.5183ZM33.7063 54.9548H26.294V40.6599H33.7063V54.9548ZM48.1271 32.1321V54.9548H37.9418V38.9782C37.9418 37.4296 36.7572 36.1753 35.2946 36.1753H24.7056C23.243 36.1753 22.0584 37.4296 22.0584 38.9782V54.9548H11.8731V32.1321H5.51977L30.0067 6.22614L31.5355 7.84482L54.4871 32.1321H48.1271Z" fill="#1B1C1F"/>
</svg>
