<svg width="26" height="26" viewBox="0 0 26 26" fill="none" xmlns="http://www.w3.org/2000/svg">
<path d="M19.6 6.4H19.612M7 1H19C22.3137 1 25 3.68629 25 7V19C25 22.3137 22.3137 25 19 25H7C3.68629 25 1 22.3137 1 19V7C1 3.68629 3.68629 1 7 1ZM17.8 12.244C17.9481 13.2427 17.7775 14.2627 17.3125 15.1588C16.8475 16.055 16.1118 16.7817 15.21 17.2356C14.3081 17.6895 13.2861 17.8475 12.2893 17.6871C11.2926 17.5267 10.3717 17.0561 9.65781 16.3422C8.9439 15.6283 8.47328 14.7075 8.31288 13.7107C8.15248 12.7139 8.31048 11.6919 8.76439 10.79C9.21831 9.88822 9.94502 9.15249 10.8412 8.68749C11.7373 8.22249 12.7573 8.05191 13.756 8.2C14.7747 8.35106 15.7178 8.82576 16.446 9.55397C17.1742 10.2822 17.6489 11.2253 17.8 12.244Z" stroke="#6675FF" stroke-width="2" stroke-linecap="round" stroke-linejoin="round"/>
</svg>