<svg width="138" height="66" viewBox="0 0 138 66" fill="none" xmlns="http://www.w3.org/2000/svg">
<path d="M87.1914 3.10059H105.191C109.131 3.10059 113.032 3.87656 116.672 5.3842C120.312 6.89184 123.619 9.10163 126.405 11.8874C129.19 14.6731 131.4 17.9803 132.908 21.6201C134.415 25.2599 135.191 29.1609 135.191 33.1006C135.191 37.0402 134.415 40.9413 132.908 44.5811C131.4 48.2209 129.19 51.528 126.405 54.3138C123.619 57.0995 120.312 59.3093 116.672 60.817C113.032 62.3246 109.131 63.1006 105.191 63.1006H87.1914M51.1914 63.1006H33.1914C29.2518 63.1006 25.3507 62.3246 21.7109 60.817C18.0711 59.3093 14.764 57.0995 11.9782 54.3138C6.35211 48.6877 3.19141 41.0571 3.19141 33.1006C3.19141 25.1441 6.35211 17.5135 11.9782 11.8874C17.6043 6.26129 25.2349 3.10059 33.1914 3.10059H51.1914M45.1914 33.1006H93.1914" stroke="#1B1C21" stroke-width="5" stroke-linecap="round" stroke-linejoin="round"/>
</svg>
