<svg width="142" height="20" viewBox="0 0 142 20" fill="none" xmlns="http://www.w3.org/2000/svg">
<path d="M12.4859 0.139648V13.436C12.4859 17.5141 10.1394 19.944 6.20107 19.944C3.77088 19.944 1.67594 18.9385 0 16.9554L1.98318 13.9107C3.24013 15.2237 4.72061 16.0337 5.92188 16.0337C7.31825 16.0337 8.12856 15.0559 8.12856 13.38V0.195535L12.4859 0.139648Z" fill="#DFDFF5"/>
<path d="M18.8393 0.223389L25.9901 19.7763H21.7445L14.5938 0.223389H18.8393V0.223389ZM33.616 0.223389L27.5823 16.5362C24.8449 14.8883 25.1245 12.4861 25.1245 12.4861L29.1465 0.223389H33.616Z" fill="#DFDFF5"/>
<path d="M43.716 8.12856C46.6213 8.99438 49.8891 9.99999 49.8891 14.1061C49.8891 17.6815 47.0122 20 42.5708 20C39.5822 20 36.4815 18.8548 34.2188 16.9553L35.8951 13.436C37.7942 15.1119 40.5876 16.3128 42.6269 16.3128C44.2748 16.3128 45.2526 15.5866 45.2526 14.3577C45.2526 12.7374 43.4649 12.2067 41.3976 11.5922C38.5484 10.7542 35.3083 9.80451 35.3083 5.81012C35.3083 2.2906 38.1574 0 42.5989 0C45.1408 0 47.7941 0.782094 49.7497 2.09493L48.1014 5.69837C46.1182 4.52513 43.716 3.715 42.1799 3.715C40.7551 3.715 39.9171 4.32965 39.9171 5.3631C39.9171 6.9273 41.6772 7.45803 43.688 8.07269L43.716 8.12856Z" fill="#DFDFF5"/>
<path d="M67.0844 0.195557V3.88271H51.4141V0.195557H67.0844ZM57.0283 6.0894C59.0676 4.46933 61.386 6.0894 61.386 6.0894V19.7485H57.0007V6.0894H57.0283Z" fill="#DFDFF5"/>
<path d="M81.7445 15.9777V19.8046H69.3984V0.251465H73.7838V15.95L81.7445 15.9777Z" fill="#DFDFF5"/>
<path d="M98.7104 16.257V19.8324H84.1016V0.279297H98.4032V3.8547H88.4592V16.229L98.7104 16.257ZM91.1967 11.8437L91.6994 8.26807H97.4534V11.8437H91.1967Z" fill="#DFDFF5"/>
<path d="M105.74 9.97198C105.74 14.5251 109.316 19.0783 114.623 19.6928C113.785 19.8882 112.891 20 111.969 20C105.936 20 101.383 15.6984 101.383 9.97198C101.383 4.32968 105.936 0.0559082 111.969 0.0559082C113.701 0.0559082 115.321 0.419017 116.746 1.06151C110.796 0.502929 105.74 5.02787 105.74 9.97198Z" fill="#DFDFF5"/>
<path d="M118.309 4.46932C121.158 6.31289 122.527 10.6145 120.432 13.799C118.7 16.4246 115.153 17.4861 112.024 16.1735C115.404 16.1735 118.169 13.38 118.141 10.0001C118.113 6.64816 115.348 3.8827 111.996 3.8827C112.415 3.7431 115.543 2.68162 118.253 4.44147L118.309 4.46932Z" fill="#6675FF"/>
<path d="M128.571 0.223389L141.615 19.7763H137.118L128.739 7.03893V19.7763H124.66V0.223389H128.571V0.223389ZM141.615 0.223389V15.3349C138.878 13.659 137.789 10.4467 137.565 9.6646V0.223389H141.615Z" fill="#DFDFF5"/>
</svg>
