<svg width="355" height="50" viewBox="0 0 355 50" fill="none" xmlns="http://www.w3.org/2000/svg">
<path d="M31.2147 0.349121V33.5901C31.2147 43.7854 25.3485 49.86 15.5027 49.86C9.42721 49.86 4.18987 47.3464 0 42.3885L4.95795 34.7768C8.10035 38.0594 11.8015 40.0842 14.8047 40.0842C18.2956 40.0842 20.3214 37.6398 20.3214 33.45V0.488837L31.2147 0.349121Z" fill="#2D2E34"/>
<path d="M47.0983 0.558594L64.9753 49.441H54.3614L36.4844 0.558594H47.0983V0.558594ZM84.04 0.558594L68.9559 41.3407C62.1123 37.2209 62.8112 31.2155 62.8112 31.2155L72.8663 0.558594H84.04Z" fill="#2D2E34"/>
<path d="M109.29 20.3214C116.553 22.486 124.723 25 124.723 35.2654C124.723 44.2039 117.531 50 106.427 50C98.9556 50 91.2038 47.137 85.5469 42.3883L89.7377 33.59C94.4854 37.7799 101.469 40.7821 106.567 40.7821C110.687 40.7821 113.131 38.9665 113.131 35.8942C113.131 31.8436 108.662 30.5167 103.494 28.9806C96.371 26.8856 88.2707 24.5113 88.2707 14.5253C88.2707 5.72651 95.3936 0 106.497 0C112.852 0 119.485 1.95524 124.374 5.23734L120.253 14.2459C115.296 11.3128 109.29 9.28751 105.45 9.28751C101.888 9.28751 99.7928 10.8241 99.7928 13.4078C99.7928 17.3183 104.193 18.6451 109.22 20.1817L109.29 20.3214Z" fill="#2D2E34"/>
<path d="M167.711 0.48877V9.70667H128.535V0.48877H167.711ZM142.571 15.2234C147.669 11.1732 153.465 15.2234 153.465 15.2234V49.3712H142.502V15.2234H142.571Z" fill="#2D2E34"/>
<path d="M204.361 39.9442V49.5116H173.496V0.628662H184.459V39.8751L204.361 39.9442Z" fill="#2D2E34"/>
<path d="M246.776 40.6427V49.5812H210.254V0.698242H246.008V9.63677H221.148V40.5726L246.776 40.6427ZM227.992 29.6092L229.248 20.6702H243.634V29.6092H227.992Z" fill="#2D2E34"/>
<path d="M264.35 24.9299C264.35 36.3128 273.289 47.6957 286.557 49.2319C284.462 49.7206 282.227 50 279.923 50C264.839 50 253.457 39.2459 253.457 24.9299C253.457 10.8241 264.839 0.139648 279.923 0.139648C284.253 0.139648 288.303 1.04742 291.865 2.65367C276.99 1.2572 264.49 12.6397 264.49 25L264.35 24.9299Z" fill="#2D2E34"/>
<path d="M295.774 11.1734C302.897 15.7824 306.319 26.5364 301.082 34.4976C296.752 41.0618 287.883 43.7155 280.062 40.4338C288.511 40.4338 295.425 33.4501 295.355 25.0003C295.286 16.6205 288.372 9.70687 279.992 9.70687C281.04 9.35788 288.861 6.70416 295.634 11.1038L295.774 11.1734Z" fill="#6675FF"/>
<path d="M321.429 0.55835L354.041 49.4408H342.798L321.849 17.5972V49.4408H311.652V0.55835H321.429V0.55835ZM354.041 0.55835V38.3373C347.197 34.1474 344.474 26.1167 343.915 24.1614V0.55835H354.041Z" fill="#2D2E34"/>
</svg>
