<svg width="60" height="60" viewBox="0 0 60 60" fill="none" xmlns="http://www.w3.org/2000/svg">
<path d="M55.7143 32.1429V42.8571H4.28571V8.57143H25.7143V4.28571H4.28571C3.14907 4.28571 2.05898 4.73724 1.25526 5.54097C0.451529 6.3447 0 7.43479 0 8.57143V42.8571C0 43.9938 0.451529 45.0839 1.25526 45.8876C2.05898 46.6913 3.14907 47.1429 4.28571 47.1429H21.4286V55.7143H12.8571V60H47.1429V55.7143H38.5714V47.1429H55.7143C56.8509 47.1429 57.941 46.6913 58.7447 45.8876C59.5485 45.0839 60 43.9938 60 42.8571V32.1429H55.7143ZM34.2857 55.7143H25.7143V47.1429H34.2857V55.7143Z" fill="#1B1C1F"/>
<path d="M60 17.1429V12.8571H55.4979C55.2215 11.5158 54.6889 10.2403 53.9293 9.10071L57.1221 5.90786L54.0921 2.87786L50.8993 6.07071C49.7597 5.3111 48.4842 4.7785 47.1429 4.50214V0H42.8571V4.50214C41.5158 4.7785 40.2403 5.3111 39.1007 6.07071L35.9079 2.87786L32.8779 5.90786L36.0707 9.10071C35.3111 10.2403 34.7785 11.5158 34.5021 12.8571H30V17.1429H34.5021C34.7785 18.4842 35.3111 19.7597 36.0707 20.8993L32.8779 24.0921L35.9079 27.1221L39.1007 23.9293C40.2403 24.6889 41.5158 25.2215 42.8571 25.4979V30H47.1429V25.4979C48.4842 25.2215 49.7597 24.6889 50.8993 23.9293L54.0921 27.1221L57.1221 24.0921L53.9293 20.8993C54.6889 19.7597 55.2215 18.4842 55.4979 17.1429H60ZM45 21.4286C43.7285 21.4286 42.4857 21.0515 41.4285 20.3452C40.3713 19.6388 39.5473 18.6348 39.0608 17.4601C38.5742 16.2854 38.4469 14.9929 38.695 13.7458C38.943 12.4988 39.5553 11.3534 40.4543 10.4543C41.3534 9.55526 42.4988 8.943 43.7458 8.69495C44.9929 8.4469 46.2854 8.57421 47.4601 9.06077C48.6348 9.54734 49.6388 10.3713 50.3452 11.4285C51.0515 12.4856 51.4286 13.7285 51.4286 15C51.4269 16.7044 50.749 18.3386 49.5438 19.5438C48.3386 20.749 46.7044 21.4269 45 21.4286Z" fill="#1B1C1F"/>
</svg>
