<svg width="31" height="26" viewBox="0 0 31 26" fill="none" xmlns="http://www.w3.org/2000/svg">
<path d="M29.8 1.01345C28.5464 1.91691 27.1584 2.60792 25.6895 3.05985C24.901 2.13364 23.8532 1.47716 22.6878 1.1792C21.5223 0.88125 20.2953 0.956198 19.1729 1.39391C18.0505 1.83162 17.0867 2.61098 16.4119 3.62658C15.7371 4.64218 15.3839 5.84501 15.4 7.07241V8.40992C13.0994 8.47087 10.8198 7.94957 8.76423 6.89244C6.70861 5.83531 4.94078 4.27517 3.61818 2.35097C3.61818 2.35097 -1.61818 14.3886 10.1636 19.7387C7.4676 21.6085 4.25591 22.5461 1 22.4137C12.7818 29.1013 27.1818 22.4137 27.1818 7.03228C27.1806 6.65972 27.1456 6.28808 27.0771 5.92214C28.4132 4.57592 29.356 2.87623 29.8 1.01345Z" stroke="white" stroke-width="2" stroke-linecap="round" stroke-linejoin="round"/>
</svg>
