<svg width="81" height="80" viewBox="0 0 81 80" fill="none" xmlns="http://www.w3.org/2000/svg">
<path d="M40.4258 0C18.3581 0 0.425781 17.9323 0.425781 40C0.425781 62.0677 18.3581 80 40.4258 80C62.4935 80 80.4258 62.0677 80.4258 40C80.4258 17.9323 62.4935 0 40.4258 0ZM40.4258 6.67077C49.1181 6.67077 56.9858 9.99077 62.9089 15.4031C62.7796 15.4 62.6535 15.3662 62.4935 15.3662C59.2258 15.3662 57.0965 18.2277 57.0965 21.2985C57.0965 24.0646 58.4904 26.3692 60.1919 29.1354C61.4535 31.3354 62.9273 34.2 62.9273 38.2985C62.9273 41.1662 61.8566 44.4646 60.3889 49.0985L57.0965 60.1969L44.5858 21.6523C45.8538 21.5851 47.1199 21.4846 48.3827 21.3508C50.1827 21.1508 49.9827 18.4862 48.1827 18.5877C48.1827 18.5877 42.7858 19.0185 39.2842 19.0185C36.0196 19.0185 30.515 18.5877 30.515 18.5877C28.715 18.4862 28.515 21.2523 30.3181 21.3508C30.3181 21.3508 32.0166 21.5508 33.8166 21.6523L39.4289 38.6L32.155 60.4677L19.5489 21.6615C20.8293 21.5952 22.1077 21.4946 23.3827 21.36C25.1827 21.16 24.9519 18.4954 23.1827 18.5969C23.1827 18.5969 18.0104 19.0062 14.5058 19.0246C17.6269 15.1576 21.5759 12.0402 26.0619 9.90215C30.5478 7.76408 35.4564 6.65983 40.4258 6.67077V6.67077ZM69.6935 24.0031C72.3692 28.9097 73.766 34.4112 73.755 40C73.7653 45.832 72.24 51.5639 69.3326 56.6194C66.4251 61.6749 62.2379 65.8759 57.1919 68.8L67.3612 39.3692C69.2596 34.6369 69.8904 30.8338 69.8904 27.4338C69.8904 26.2 69.8289 25.0954 69.6996 24.0338C69.6935 24.0246 69.6965 24.0123 69.6935 24.0031ZM10.2812 25.8L25.8596 69.9692C20.2279 67.2469 15.4792 62.9899 12.1599 57.6882C8.84054 52.3864 7.08545 46.2552 7.09655 40C7.09655 34.9077 8.25655 30.1077 10.2812 25.8V25.8ZM40.9889 42.9015L51.2596 70.9969C51.3172 71.1491 51.3948 71.2929 51.4904 71.4246C47.9361 72.6793 44.195 73.3232 40.4258 73.3292C37.2323 73.3259 34.0557 72.8669 30.9919 71.9662L40.9919 42.9015H40.9889Z" fill="#6675FF"/>
</svg>
